<svg xmlns="http://www.w3.org/2000/svg" xmlns:xlink="http://www.w3.org/1999/xlink" width="500" zoomAndPan="magnify" viewBox="0 0 375 374.999991" height="500" preserveAspectRatio="xMidYMid meet" version="1.0"><defs><g/><clipPath id="ef48686f56"><path d="M 123.542969 61.1875 L 251.792969 61.1875 L 251.792969 161.6875 L 123.542969 161.6875 Z M 123.542969 61.1875 " clip-rule="nonzero"/></clipPath><clipPath id="19a194c3d0"><path d="M 37.5 183 L 337 183 L 337 187.5 L 37.5 187.5 Z M 37.5 183 " clip-rule="nonzero"/></clipPath><clipPath id="6cc2e3ca6a"><path d="M 37.5 185.359375 C 37.5 184.789062 37.722656 184.246094 38.125 183.84375 C 38.527344 183.441406 39.070312 183.21875 39.640625 183.21875 L 335.359375 183.21875 C 335.925781 183.21875 336.46875 183.441406 336.871094 183.84375 C 337.273438 184.246094 337.5 184.789062 337.5 185.359375 C 337.5 185.925781 337.273438 186.46875 336.871094 186.871094 C 336.46875 187.273438 335.925781 187.5 335.359375 187.5 L 39.640625 187.5 C 39.070312 187.5 38.527344 187.273438 38.125 186.871094 C 37.722656 186.46875 37.5 185.925781 37.5 185.359375 " clip-rule="nonzero"/></clipPath></defs><g clip-path="url(#ef48686f56)"><path fill="#654ab1" d="M 135.734375 125.273438 L 131.554688 129.433594 L 155.542969 153.324219 L 179.53125 129.433594 L 175.351562 125.273438 L 155.542969 144.988281 Z M 155.542969 89.609375 L 183.363281 117.296875 L 179.546875 121.097656 L 187.5625 129.070312 L 187.199219 129.433594 L 187.5625 129.792969 L 155.542969 161.660156 L 123.542969 129.792969 L 123.90625 129.433594 L 123.542969 129.070312 L 131.554688 121.097656 L 127.722656 117.296875 Z M 155.542969 61.210938 L 203.734375 109.058594 L 251.792969 61.210938 L 251.792969 156.90625 L 235.949219 156.90625 L 235.949219 99.738281 L 203.734375 131.667969 L 155.542969 83.460938 Z M 155.542969 61.210938 " fill-opacity="1" fill-rule="evenodd"/></g><g clip-path="url(#19a194c3d0)"><g clip-path="url(#6cc2e3ca6a)"><path fill="#654ab1" d="M 37.5 187.5 L 37.5 183.222656 L 336.855469 183.222656 L 336.855469 187.5 Z M 37.5 187.5 " fill-opacity="1" fill-rule="nonzero"/></g></g><g fill="#654ab1" fill-opacity="1"><g transform="translate(46.509635, 239.458659)"><g><path d="M 24.8125 -18.96875 L 24.6875 -18.96875 L 22.578125 -14.75 L 16.9375 -4.515625 L 11.4375 -14.703125 L 9.234375 -19.265625 L 9.109375 -19.265625 L 9.109375 0 L 3.1875 0 L 3.1875 -28.90625 L 9.859375 -28.90625 L 16.9375 -15.375 L 17.03125 -15.375 L 24.03125 -28.90625 L 30.734375 -28.90625 L 30.734375 0 L 24.8125 0 Z M 24.8125 -18.96875 "/></g></g></g><g fill="#654ab1" fill-opacity="1"><g transform="translate(80.432868, 239.458659)"><g><path d="M 18.9375 0 C 17.820312 0 16.898438 -0.34375 16.171875 -1.03125 C 15.441406 -1.726562 14.976562 -2.65625 14.78125 -3.8125 L 14.546875 -3.8125 C 14.210938 -2.40625 13.476562 -1.332031 12.34375 -0.59375 C 11.207031 0.132812 9.8125 0.5 8.15625 0.5 C 5.976562 0.5 4.304688 -0.078125 3.140625 -1.234375 C 1.984375 -2.398438 1.40625 -3.9375 1.40625 -5.84375 C 1.40625 -8.132812 2.238281 -9.835938 3.90625 -10.953125 C 5.582031 -12.078125 7.859375 -12.640625 10.734375 -12.640625 L 14.171875 -12.640625 L 14.171875 -14 C 14.171875 -15.050781 13.894531 -15.882812 13.34375 -16.5 C 12.789062 -17.125 11.863281 -17.4375 10.5625 -17.4375 C 9.34375 -17.4375 8.375 -17.171875 7.65625 -16.640625 C 6.945312 -16.117188 6.351562 -15.53125 5.875 -14.875 L 2.234375 -18.09375 C 3.117188 -19.394531 4.226562 -20.410156 5.5625 -21.140625 C 6.90625 -21.878906 8.722656 -22.25 11.015625 -22.25 C 14.109375 -22.25 16.425781 -21.570312 17.96875 -20.21875 C 19.519531 -18.863281 20.296875 -16.890625 20.296875 -14.296875 L 20.296875 -4.765625 L 22.328125 -4.765625 L 22.328125 0 Z M 10.4375 -3.765625 C 11.457031 -3.765625 12.332031 -3.984375 13.0625 -4.421875 C 13.800781 -4.867188 14.171875 -5.59375 14.171875 -6.59375 L 14.171875 -9.15625 L 11.1875 -9.15625 C 8.78125 -9.15625 7.578125 -8.335938 7.578125 -6.703125 L 7.578125 -6.09375 C 7.578125 -5.289062 7.828125 -4.703125 8.328125 -4.328125 C 8.828125 -3.953125 9.53125 -3.765625 10.4375 -3.765625 Z M 10.4375 -3.765625 "/></g></g></g><g fill="#654ab1" fill-opacity="1"><g transform="translate(104.001025, 239.458659)"><g><path d="M 0.78125 -21.75 L 6.703125 -21.75 L 8.828125 -12.96875 L 10.3125 -6.34375 L 10.484375 -6.34375 L 12.21875 -12.96875 L 14.703125 -21.75 L 20.296875 -21.75 L 22.828125 -12.96875 L 24.609375 -6.34375 L 24.765625 -6.34375 L 26.265625 -12.96875 L 28.375 -21.75 L 34.046875 -21.75 L 28.046875 0 L 21.625 0 L 18.96875 -9.203125 L 17.4375 -14.828125 L 17.3125 -14.828125 L 15.828125 -9.203125 L 13.171875 0 L 6.875 0 Z M 0.78125 -21.75 "/></g></g></g><g fill="#654ab1" fill-opacity="1"><g transform="translate(138.83551, 239.458659)"><g><path d="M 18.9375 0 C 17.820312 0 16.898438 -0.34375 16.171875 -1.03125 C 15.441406 -1.726562 14.976562 -2.65625 14.78125 -3.8125 L 14.546875 -3.8125 C 14.210938 -2.40625 13.476562 -1.332031 12.34375 -0.59375 C 11.207031 0.132812 9.8125 0.5 8.15625 0.5 C 5.976562 0.5 4.304688 -0.078125 3.140625 -1.234375 C 1.984375 -2.398438 1.40625 -3.9375 1.40625 -5.84375 C 1.40625 -8.132812 2.238281 -9.835938 3.90625 -10.953125 C 5.582031 -12.078125 7.859375 -12.640625 10.734375 -12.640625 L 14.171875 -12.640625 L 14.171875 -14 C 14.171875 -15.050781 13.894531 -15.882812 13.34375 -16.5 C 12.789062 -17.125 11.863281 -17.4375 10.5625 -17.4375 C 9.34375 -17.4375 8.375 -17.171875 7.65625 -16.640625 C 6.945312 -16.117188 6.351562 -15.53125 5.875 -14.875 L 2.234375 -18.09375 C 3.117188 -19.394531 4.226562 -20.410156 5.5625 -21.140625 C 6.90625 -21.878906 8.722656 -22.25 11.015625 -22.25 C 14.109375 -22.25 16.425781 -21.570312 17.96875 -20.21875 C 19.519531 -18.863281 20.296875 -16.890625 20.296875 -14.296875 L 20.296875 -4.765625 L 22.328125 -4.765625 L 22.328125 0 Z M 10.4375 -3.765625 C 11.457031 -3.765625 12.332031 -3.984375 13.0625 -4.421875 C 13.800781 -4.867188 14.171875 -5.59375 14.171875 -6.59375 L 14.171875 -9.15625 L 11.1875 -9.15625 C 8.78125 -9.15625 7.578125 -8.335938 7.578125 -6.703125 L 7.578125 -6.09375 C 7.578125 -5.289062 7.828125 -4.703125 8.328125 -4.328125 C 8.828125 -3.953125 9.53125 -3.765625 10.4375 -3.765625 Z M 10.4375 -3.765625 "/></g></g></g><g fill="#654ab1" fill-opacity="1"><g transform="translate(162.403666, 239.458659)"><g><path d="M 2.859375 0 L 2.859375 -21.75 L 8.984375 -21.75 L 8.984375 -17.03125 L 9.203125 -17.03125 C 9.304688 -17.632812 9.492188 -18.21875 9.765625 -18.78125 C 10.046875 -19.351562 10.414062 -19.859375 10.875 -20.296875 C 11.332031 -20.734375 11.878906 -21.082031 12.515625 -21.34375 C 13.148438 -21.613281 13.894531 -21.75 14.75 -21.75 L 15.828125 -21.75 L 15.828125 -16.03125 L 14.296875 -16.03125 C 12.492188 -16.03125 11.15625 -15.796875 10.28125 -15.328125 C 9.414062 -14.859375 8.984375 -13.988281 8.984375 -12.71875 L 8.984375 0 Z M 2.859375 0 "/></g></g></g><g fill="#654ab1" fill-opacity="1"><g transform="translate(179.137482, 239.458659)"><g><path d="M 11.921875 0.5 C 10.265625 0.5 8.785156 0.226562 7.484375 -0.3125 C 6.191406 -0.851562 5.097656 -1.613281 4.203125 -2.59375 C 3.304688 -3.570312 2.628906 -4.765625 2.171875 -6.171875 C 1.710938 -7.578125 1.484375 -9.148438 1.484375 -10.890625 C 1.484375 -12.609375 1.703125 -14.160156 2.140625 -15.546875 C 2.585938 -16.941406 3.242188 -18.132812 4.109375 -19.125 C 4.984375 -20.125 6.054688 -20.894531 7.328125 -21.4375 C 8.597656 -21.976562 10.050781 -22.25 11.6875 -22.25 C 13.476562 -22.25 15.015625 -21.941406 16.296875 -21.328125 C 17.578125 -20.722656 18.625 -19.910156 19.4375 -18.890625 C 20.257812 -17.867188 20.851562 -16.6875 21.21875 -15.34375 C 21.59375 -14.007812 21.78125 -12.609375 21.78125 -11.140625 L 21.78125 -9.3125 L 7.828125 -9.3125 L 7.828125 -8.984375 C 7.828125 -7.546875 8.210938 -6.40625 8.984375 -5.5625 C 9.753906 -4.726562 10.972656 -4.3125 12.640625 -4.3125 C 13.910156 -4.3125 14.941406 -4.566406 15.734375 -5.078125 C 16.535156 -5.585938 17.285156 -6.203125 17.984375 -6.921875 L 21.046875 -3.109375 C 20.078125 -1.972656 18.8125 -1.085938 17.25 -0.453125 C 15.6875 0.179688 13.910156 0.5 11.921875 0.5 Z M 11.8125 -17.734375 C 10.5625 -17.734375 9.582031 -17.320312 8.875 -16.5 C 8.175781 -15.6875 7.828125 -14.601562 7.828125 -13.25 L 7.828125 -12.921875 L 15.453125 -12.921875 L 15.453125 -13.296875 C 15.453125 -14.617188 15.15625 -15.6875 14.5625 -16.5 C 13.96875 -17.320312 13.050781 -17.734375 11.8125 -17.734375 Z M 11.8125 -17.734375 "/></g></g></g><g fill="#654ab1" fill-opacity="1"><g transform="translate(202.415697, 239.458659)"><g><path d="M 16.203125 -3.640625 L 15.984375 -3.640625 C 15.816406 -3.066406 15.550781 -2.523438 15.1875 -2.015625 C 14.832031 -1.503906 14.398438 -1.0625 13.890625 -0.6875 C 13.378906 -0.3125 12.800781 -0.0195312 12.15625 0.1875 C 11.507812 0.394531 10.835938 0.5 10.140625 0.5 C 7.378906 0.5 5.296875 -0.472656 3.890625 -2.421875 C 2.484375 -4.367188 1.78125 -7.191406 1.78125 -10.890625 C 1.78125 -14.585938 2.484375 -17.40625 3.890625 -19.34375 C 5.296875 -21.28125 7.378906 -22.25 10.140625 -22.25 C 11.554688 -22.25 12.804688 -21.859375 13.890625 -21.078125 C 14.984375 -20.304688 15.679688 -19.3125 15.984375 -18.09375 L 16.203125 -18.09375 L 16.203125 -30.65625 L 22.328125 -30.65625 L 22.328125 0 L 16.203125 0 Z M 12.171875 -4.46875 C 13.335938 -4.46875 14.300781 -4.75 15.0625 -5.3125 C 15.820312 -5.882812 16.203125 -6.664062 16.203125 -7.65625 L 16.203125 -14.078125 C 16.203125 -15.078125 15.820312 -15.859375 15.0625 -16.421875 C 14.300781 -16.984375 13.335938 -17.265625 12.171875 -17.265625 C 11.015625 -17.265625 10.054688 -16.859375 9.296875 -16.046875 C 8.535156 -15.234375 8.15625 -14.140625 8.15625 -12.765625 L 8.15625 -8.984375 C 8.15625 -7.609375 8.535156 -6.507812 9.296875 -5.6875 C 10.054688 -4.875 11.015625 -4.46875 12.171875 -4.46875 Z M 12.171875 -4.46875 "/></g></g></g><g fill="#654ab1" fill-opacity="1"><g transform="translate(227.592837, 239.458659)"><g/></g></g><g fill="#654ab1" fill-opacity="1"><g transform="translate(239.521916, 237.718982)"><g><path d="M 3.6875 -24.484375 C 2.664062 -24.484375 1.972656 -24.832031 1.609375 -25.53125 C 1.253906 -26.238281 1.078125 -27.035156 1.078125 -27.921875 C 1.078125 -28.222656 1.097656 -28.546875 1.140625 -28.890625 C 1.179688 -29.234375 1.242188 -29.628906 1.328125 -30.078125 L 3.8125 -30.65625 C 3.644531 -29.71875 3.5625 -28.929688 3.5625 -28.296875 C 3.5625 -27.546875 3.820312 -27.171875 4.34375 -27.171875 C 4.675781 -27.171875 4.945312 -27.363281 5.15625 -27.75 C 5.363281 -28.132812 5.46875 -28.878906 5.46875 -29.984375 L 5.46875 -31.234375 L 7.875 -31.984375 L 7.875 -29.453125 C 7.875 -28.765625 8.132812 -28.421875 8.65625 -28.421875 C 9.039062 -28.421875 9.304688 -28.535156 9.453125 -28.765625 C 9.609375 -29.003906 9.6875 -29.285156 9.6875 -29.609375 C 9.6875 -30.085938 9.628906 -30.566406 9.515625 -31.046875 C 9.410156 -31.523438 9.265625 -32 9.078125 -32.46875 L 11.34375 -33.046875 C 11.625 -32.492188 11.851562 -31.882812 12.03125 -31.21875 C 12.207031 -30.5625 12.296875 -29.957031 12.296875 -29.40625 C 12.296875 -28.5 12.035156 -27.675781 11.515625 -26.9375 C 10.992188 -26.207031 10.140625 -25.84375 8.953125 -25.84375 C 8.171875 -25.84375 7.519531 -26.09375 7 -26.59375 C 6.75 -25.957031 6.332031 -25.445312 5.75 -25.0625 C 5.175781 -24.675781 4.488281 -24.484375 3.6875 -24.484375 Z M 3.6875 -24.484375 "/></g></g></g><g fill="#654ab1" fill-opacity="1"><g transform="translate(237.368028, 239.458659)"><g><path d="M 1.453125 -1.65625 L 3.484375 -6.921875 C 5.441406 -6.035156 7.359375 -5.59375 9.234375 -5.59375 C 12.160156 -5.59375 13.625 -6.378906 13.625 -7.953125 C 13.625 -8.421875 13.476562 -9.066406 13.1875 -9.890625 C 12.90625 -10.722656 12.390625 -11.804688 11.640625 -13.140625 C 10.890625 -14.484375 9.800781 -16.148438 8.375 -18.140625 L 13.296875 -21.421875 C 15.253906 -18.578125 16.828125 -15.882812 18.015625 -13.34375 C 19.203125 -10.800781 19.796875 -8.660156 19.796875 -6.921875 C 19.796875 -4.796875 18.945312 -3.066406 17.25 -1.734375 C 15.550781 -0.410156 13.085938 0.25 9.859375 0.25 C 9.054688 0.25 8.148438 0.175781 7.140625 0.03125 C 6.140625 -0.101562 5.140625 -0.304688 4.140625 -0.578125 C 3.148438 -0.859375 2.253906 -1.21875 1.453125 -1.65625 Z M 1.453125 -1.65625 "/></g></g></g><g fill="#654ab1" fill-opacity="1"><g transform="translate(258.782325, 239.458659)"><g><path d="M 0.65625 9.53125 L -1.453125 4.21875 C 2.085938 2.976562 4.65625 1.550781 6.25 -0.0625 C 7.851562 -1.675781 8.65625 -3.394531 8.65625 -5.21875 C 8.65625 -6.375 8.40625 -7.613281 7.90625 -8.9375 C 7.414062 -10.269531 6.769531 -11.707031 5.96875 -13.25 L 11.390625 -15.859375 C 12.359375 -14.015625 13.109375 -12.25 13.640625 -10.5625 C 14.179688 -8.875 14.453125 -7.300781 14.453125 -5.84375 C 14.453125 -2.445312 13.347656 0.546875 11.140625 3.140625 C 8.929688 5.742188 5.4375 7.875 0.65625 9.53125 Z M 0.65625 9.53125 "/></g></g></g><g fill="#654ab1" fill-opacity="1"><g transform="translate(275.723232, 239.458659)"><g><path d="M 3.3125 0 L 2.4375 -30.328125 L 8.25 -30.328125 L 9.109375 0 Z M 3.3125 0 "/></g></g></g><g fill="#654ab1" fill-opacity="1"><g transform="translate(287.030979, 239.458659)"><g><path d="M 2.359375 9.53125 L 1.15625 3.734375 C 3.644531 3.421875 5.738281 3.023438 7.4375 2.546875 C 9.132812 2.066406 10.453125 1.285156 11.390625 0.203125 L 10.265625 0.203125 C 7.671875 0.203125 5.632812 -0.269531 4.15625 -1.21875 C 2.6875 -2.175781 1.953125 -3.8125 1.953125 -6.125 C 1.953125 -7.375 2.164062 -8.617188 2.59375 -9.859375 C 3.019531 -11.097656 3.617188 -12.234375 4.390625 -13.265625 C 5.160156 -14.304688 6.0625 -15.132812 7.09375 -15.75 C 8.132812 -16.375 9.265625 -16.6875 10.484375 -16.6875 C 12.109375 -16.6875 13.546875 -16.175781 14.796875 -15.15625 C 16.054688 -14.132812 17.039062 -12.78125 17.75 -11.09375 C 18.457031 -9.414062 18.8125 -7.582031 18.8125 -5.59375 L 22.078125 -5.59375 C 23.097656 -5.59375 23.84375 -5.320312 24.3125 -4.78125 C 24.78125 -4.238281 25.015625 -3.570312 25.015625 -2.78125 C 25.015625 -1.914062 24.722656 -1.203125 24.140625 -0.640625 C 23.566406 -0.078125 22.738281 0.203125 21.65625 0.203125 L 17.859375 0.203125 C 16.773438 3.078125 14.898438 5.296875 12.234375 6.859375 C 9.578125 8.421875 6.285156 9.3125 2.359375 9.53125 Z M 7.65625 -7.125 C 7.65625 -6.820312 7.757812 -6.507812 7.96875 -6.1875 C 8.175781 -5.875 8.648438 -5.625 9.390625 -5.4375 C 10.140625 -5.257812 11.332031 -5.242188 12.96875 -5.390625 C 12.9375 -6.984375 12.671875 -8.242188 12.171875 -9.171875 C 11.679688 -10.097656 11.035156 -10.5625 10.234375 -10.5625 C 9.648438 -10.5625 9.164062 -10.359375 8.78125 -9.953125 C 8.394531 -9.554688 8.109375 -9.085938 7.921875 -8.546875 C 7.742188 -8.015625 7.65625 -7.539062 7.65625 -7.125 Z M 7.65625 -7.125 "/></g></g></g><g fill="#654ab1" fill-opacity="1"><g transform="translate(308.735219, 239.458659)"><g><path d="M 0 0.203125 L 0.421875 -5.59375 C 1.023438 -5.59375 1.5625 -5.75 2.03125 -6.0625 C 2.5 -6.382812 2.976562 -6.914062 3.46875 -7.65625 C 3.96875 -8.40625 4.550781 -9.441406 5.21875 -10.765625 C 6.457031 -13.253906 7.773438 -14.957031 9.171875 -15.875 C 10.566406 -16.800781 12 -17.265625 13.46875 -17.265625 C 15.09375 -17.265625 16.550781 -16.8125 17.84375 -15.90625 C 19.144531 -15 20.164062 -13.816406 20.90625 -12.359375 C 21.65625 -10.910156 22.03125 -9.375 22.03125 -7.75 C 22.03125 -6.28125 21.71875 -4.957031 21.09375 -3.78125 C 20.476562 -2.613281 19.625 -1.691406 18.53125 -1.015625 C 17.445312 -0.335938 16.195312 0 14.78125 0 C 13.738281 0 12.539062 -0.148438 11.1875 -0.453125 C 9.832031 -0.753906 8.410156 -1.390625 6.921875 -2.359375 C 6.066406 -1.390625 5.113281 -0.71875 4.0625 -0.34375 C 3.007812 0.0195312 1.65625 0.203125 0 0.203125 Z M 13.296875 -11.46875 C 12.492188 -11.46875 11.859375 -11.066406 11.390625 -10.265625 C 10.921875 -9.472656 10.367188 -8.410156 9.734375 -7.078125 C 10.585938 -6.640625 11.378906 -6.316406 12.109375 -6.109375 C 12.847656 -5.898438 13.476562 -5.796875 14 -5.796875 C 14.832031 -5.796875 15.441406 -5.921875 15.828125 -6.171875 C 16.210938 -6.421875 16.40625 -6.863281 16.40625 -7.5 C 16.40625 -8.082031 16.265625 -8.675781 15.984375 -9.28125 C 15.710938 -9.882812 15.34375 -10.398438 14.875 -10.828125 C 14.40625 -11.253906 13.878906 -11.46875 13.296875 -11.46875 Z M 13.296875 -11.46875 "/></g></g></g></svg>